<svg xmlns="http://www.w3.org/2000/svg" viewBox="0 0 64 64">
  <defs>
    <linearGradient id="bg" x1="0" x2="0" y1="0" y2="1">
      <stop offset="0" stop-color="#0d223d" />
      <stop offset="1" stop-color="#04101d" />
    </linearGradient>
    <linearGradient id="screen" x1="0" x2="1" y1="0" y2="1">
      <stop offset="0" stop-color="#66e6ff" />
      <stop offset="1" stop-color="#1757a8" />
    </linearGradient>
    <linearGradient id="moon" x1="0" x2="1" y1="0" y2="1">
      <stop offset="0" stop-color="#fff0a3" />
      <stop offset="1" stop-color="#ffca4a" />
    </linearGradient>
  </defs>
  <rect width="64" height="64" rx="10" fill="url(#bg)" />
  <path d="M13 16h38l5 5v22l-5 5H13l-5-5V21z" fill="none" stroke="#9fe7ff" stroke-width="3" />
  <rect x="16" y="20" width="32" height="18" fill="url(#screen)" opacity="0.18" />
  <path d="M20 43h24" stroke="#9fe7ff" stroke-width="3" stroke-linecap="square" />
  <path d="M24 47h16" stroke="#9fe7ff" stroke-width="3" stroke-linecap="square" />
  <circle cx="45" cy="25" r="4.5" fill="#ff4d67" />
  <path d="M31 22c-4.9 1.6-7.5 6.8-5.9 11.7 1.2 3.5 4.3 5.9 8 6.2-5.8 2.4-12.5-.3-15-6.1-2.4-5.8.3-12.5 6.1-15 2.2-.9 4.7-1.1 6.8-.4z" fill="url(#moon)" />
</svg>
